<svg width="1223" height="682" viewBox="0 0 1223 682" fill="none" xmlns="http://www.w3.org/2000/svg">
<rect width="1223" height="682" fill="white"/>
<path d="M97.1953 645.708C100.213 645.561 103.012 645.414 105.811 645.293C106.303 645.273 106.801 645.343 107.296 645.385C107.753 645.423 108.212 645.452 108.666 645.523C109.288 645.617 109.899 645.788 110.525 645.849C111.115 645.908 111.716 645.841 112.309 645.876C113.961 645.976 115.609 646.132 117.26 646.191C117.717 646.208 118.18 645.885 118.645 645.864C120.127 645.797 121.636 645.644 123.095 645.826C124.222 645.964 124.901 645.979 124.889 644.637C124.889 644.543 125.191 644.449 125.496 644.273C125.369 645.511 126.202 645.444 126.946 645.855C128.5 646.72 129.617 646.105 130.963 645.679C131.527 645.499 132.262 645.902 132.926 645.988C133.768 646.1 134.616 646.155 135.464 646.244C135.763 646.276 136.06 646.361 136.359 646.367C136.866 646.379 137.373 646.367 137.877 646.326C138.286 646.294 138.692 646.135 139.096 646.15C140.969 646.223 142.846 646.291 144.714 646.455C146.715 646.635 148.71 646.347 150.744 646.711C151.707 646.885 152.923 645.764 153.978 645.149C154.061 645.102 153.895 644.234 153.646 644.096C151.93 643.14 150.225 642.007 148.079 642.887C147.901 642.961 147.542 642.702 147.314 642.537C145.57 641.263 143.64 641.284 141.627 641.619C141.177 641.696 140.477 641.681 140.246 641.41C139.41 640.439 138.574 640.91 137.601 641.043C136.424 641.204 135.17 641.093 133.984 640.887C130.255 640.242 126.531 640.269 122.787 640.66C122.063 640.737 121.168 640.272 120.599 640.554C119.327 641.187 118.132 640.522 116.905 640.654C115.823 640.772 114.702 640.537 113.596 640.457C113.403 640.442 113.19 640.384 113.024 640.445C111.132 641.163 109.259 640.425 107.379 640.445C105.577 640.463 103.786 640.525 101.966 641.072C99.8073 641.722 97.4622 641.763 95.2001 642.069L95.1082 641.622C96.5372 641.119 97.9691 640.628 99.3863 640.098C99.6205 640.01 99.7717 639.719 99.994 639.575C100.64 639.154 101.296 638.751 101.96 638.36C102.289 638.165 102.636 638.001 102.982 637.842C103.581 637.568 104.168 637.265 104.791 637.056C107.08 636.283 109.093 634.982 111.017 633.603C111.571 633.203 112.36 632.867 112.653 632.411C113.148 631.643 113.32 630.561 113.273 629.628C113.261 629.375 111.927 628.899 111.295 629.019C109.869 629.293 108.449 629.758 107.13 630.361C105.508 631.102 103.99 632.067 102.425 632.929C102.167 633.07 101.906 633.255 101.628 633.303C100.024 633.567 98.7429 634.285 97.3792 635.247C94.8206 637.05 91.9241 638.389 89.1343 639.854C88.0166 640.439 87.7083 641.181 88.2834 642.328C88.4969 642.755 88.5176 643.278 88.7459 643.69C89.1995 644.499 89.7391 645.261 90.2401 646.044C90.9635 647.176 91.6662 648.324 92.4192 649.436C92.7157 649.874 93.0507 650.35 93.4835 650.618C95.3839 651.795 96.3415 653.675 97.48 655.469C98.0166 656.317 99.072 656.823 99.8369 657.543C100.7 658.358 101.408 659.361 102.357 660.047C103.086 660.576 104.082 660.991 104.963 661C105.974 661.009 106.315 660.053 106.063 659.144C105.591 657.426 105.164 655.746 103.525 654.534C102.716 653.937 102.404 652.657 101.144 652.448C101.079 652.436 100.996 652.298 100.993 652.216C100.869 649.721 98.8912 648.324 97.5896 646.526C97.4296 646.303 97.3436 646.026 97.1924 645.708H97.1953Z" fill="#404040" fill-opacity="0.66"/>
<path d="M1045.8 645.708C1042.79 645.561 1039.99 645.414 1037.19 645.293C1036.7 645.273 1036.2 645.343 1035.7 645.385C1035.25 645.423 1034.79 645.452 1034.33 645.523C1033.71 645.617 1033.1 645.788 1032.48 645.849C1031.89 645.908 1031.28 645.841 1030.69 645.876C1029.04 645.976 1027.39 646.132 1025.74 646.191C1025.28 646.208 1024.82 645.885 1024.35 645.864C1022.87 645.797 1021.36 645.644 1019.9 645.826C1018.78 645.964 1018.1 645.979 1018.11 644.637C1018.11 644.543 1017.81 644.449 1017.5 644.273C1017.63 645.511 1016.8 645.444 1016.05 645.855C1014.5 646.72 1013.38 646.105 1012.04 645.679C1011.47 645.499 1010.74 645.902 1010.07 645.988C1009.23 646.1 1008.38 646.155 1007.54 646.244C1007.24 646.276 1006.94 646.361 1006.64 646.367C1006.13 646.379 1005.63 646.367 1005.12 646.326C1004.71 646.294 1004.31 646.135 1003.9 646.15C1002.03 646.223 1000.15 646.291 998.286 646.455C996.285 646.635 994.29 646.347 992.256 646.711C991.293 646.885 990.077 645.764 989.022 645.149C988.939 645.102 989.105 644.234 989.354 644.096C991.07 643.14 992.775 642.007 994.921 642.887C995.099 642.961 995.458 642.702 995.686 642.537C997.43 641.263 999.36 641.284 1001.37 641.619C1001.82 641.696 1002.52 641.681 1002.75 641.41C1003.59 640.439 1004.43 640.91 1005.4 641.043C1006.58 641.204 1007.83 641.093 1009.02 640.887C1012.75 640.242 1016.47 640.269 1020.21 640.66C1020.94 640.737 1021.83 640.272 1022.4 640.554C1023.67 641.187 1024.87 640.522 1026.1 640.654C1027.18 640.772 1028.3 640.537 1029.4 640.457C1029.6 640.442 1029.81 640.384 1029.98 640.445C1031.87 641.163 1033.74 640.425 1035.62 640.445C1037.42 640.463 1039.21 640.525 1041.03 641.072C1043.19 641.722 1045.54 641.763 1047.8 642.069L1047.89 641.622C1046.46 641.119 1045.03 640.628 1043.61 640.098C1043.38 640.01 1043.23 639.719 1043.01 639.575C1042.36 639.154 1041.7 638.751 1041.04 638.36C1040.71 638.165 1040.36 638.001 1040.02 637.842C1039.42 637.568 1038.83 637.265 1038.21 637.056C1035.92 636.283 1033.91 634.982 1031.98 633.603C1031.43 633.203 1030.64 632.867 1030.35 632.411C1029.85 631.643 1029.68 630.561 1029.73 629.628C1029.74 629.375 1031.07 628.899 1031.7 629.019C1033.13 629.293 1034.55 629.758 1035.87 630.361C1037.49 631.102 1039.01 632.067 1040.57 632.929C1040.83 633.07 1041.09 633.255 1041.37 633.303C1042.98 633.567 1044.26 634.285 1045.62 635.247C1048.18 637.05 1051.08 638.389 1053.87 639.854C1054.98 640.439 1055.29 641.181 1054.72 642.328C1054.5 642.755 1054.48 643.278 1054.25 643.69C1053.8 644.499 1053.26 645.261 1052.76 646.044C1052.04 647.176 1051.33 648.324 1050.58 649.436C1050.28 649.874 1049.95 650.35 1049.52 650.618C1047.62 651.795 1046.66 653.675 1045.52 655.469C1044.98 656.317 1043.93 656.823 1043.16 657.543C1042.3 658.358 1041.59 659.361 1040.64 660.047C1039.91 660.576 1038.92 660.991 1038.04 661C1037.03 661.009 1036.69 660.053 1036.94 659.144C1037.41 657.426 1037.84 655.746 1039.48 654.534C1040.28 653.937 1040.6 652.657 1041.86 652.448C1041.92 652.436 1042 652.298 1042.01 652.216C1042.13 649.721 1044.11 648.324 1045.41 646.526C1045.57 646.303 1045.66 646.026 1045.81 645.708H1045.8Z" fill="#404040" fill-opacity="0.66"/>
<path d="M32.2188 37.4531H36.8906C36.7969 38.9844 36.375 40.3438 35.625 41.5312C34.8854 42.7188 33.849 43.6458 32.5156 44.3125C31.1927 44.9792 29.599 45.3125 27.7344 45.3125C26.276 45.3125 24.9688 45.0625 23.8125 44.5625C22.6562 44.0521 21.6667 43.3229 20.8438 42.375C20.0312 41.4271 19.4115 40.2812 18.9844 38.9375C18.5573 37.5938 18.3438 36.0885 18.3438 34.4219V32.8438C18.3438 31.1771 18.5625 29.6719 19 28.3281C19.4479 26.974 20.0833 25.8229 20.9062 24.875C21.7396 23.9271 22.7344 23.1979 23.8906 22.6875C25.0469 22.1771 26.3385 21.9219 27.7656 21.9219C29.6615 21.9219 31.2604 22.2656 32.5625 22.9531C33.875 23.6406 34.8906 24.5885 35.6094 25.7969C36.3385 27.0052 36.776 28.3802 36.9219 29.9219H32.2344C32.1823 29.0052 32 28.2292 31.6875 27.5938C31.375 26.9479 30.901 26.4635 30.2656 26.1406C29.6406 25.8073 28.8073 25.6406 27.7656 25.6406C26.9844 25.6406 26.3021 25.7865 25.7188 26.0781C25.1354 26.3698 24.6458 26.8125 24.25 27.4062C23.8542 28 23.5573 28.75 23.3594 29.6562C23.1719 30.5521 23.0781 31.6042 23.0781 32.8125V34.4219C23.0781 35.599 23.1667 36.6354 23.3438 37.5312C23.5208 38.4167 23.7917 39.1667 24.1562 39.7812C24.5312 40.3854 25.0104 40.8438 25.5938 41.1562C26.1875 41.4583 26.901 41.6094 27.7344 41.6094C28.7135 41.6094 29.5208 41.4531 30.1562 41.1406C30.7917 40.8281 31.276 40.3646 31.6094 39.75C31.9531 39.1354 32.1562 38.3698 32.2188 37.4531ZM48.8125 41.1875V33.6562C48.8125 33.1146 48.724 32.651 48.5469 32.2656C48.3698 31.8698 48.0938 31.5625 47.7188 31.3438C47.3542 31.125 46.8802 31.0156 46.2969 31.0156C45.7969 31.0156 45.3646 31.1042 45 31.2812C44.6354 31.4479 44.3542 31.6927 44.1562 32.0156C43.9583 32.3281 43.8594 32.6979 43.8594 33.125H39.3594C39.3594 32.4062 39.526 31.724 39.8594 31.0781C40.1927 30.4323 40.6771 29.8646 41.3125 29.375C41.9479 28.875 42.7031 28.4844 43.5781 28.2031C44.4635 27.9219 45.4531 27.7812 46.5469 27.7812C47.8594 27.7812 49.026 28 50.0469 28.4375C51.0677 28.875 51.8698 29.5312 52.4531 30.4062C53.0469 31.2812 53.3438 32.375 53.3438 33.6875V40.9219C53.3438 41.849 53.401 42.6094 53.5156 43.2031C53.6302 43.7865 53.7969 44.2969 54.0156 44.7344V45H49.4688C49.25 44.5417 49.0833 43.9688 48.9688 43.2812C48.8646 42.5833 48.8125 41.8854 48.8125 41.1875ZM49.4062 34.7031L49.4375 37.25H46.9219C46.3281 37.25 45.8125 37.3177 45.375 37.4531C44.9375 37.5885 44.5781 37.7812 44.2969 38.0312C44.0156 38.2708 43.8073 38.5521 43.6719 38.875C43.5469 39.1979 43.4844 39.5521 43.4844 39.9375C43.4844 40.3229 43.5729 40.6719 43.75 40.9844C43.9271 41.2865 44.1823 41.526 44.5156 41.7031C44.849 41.8698 45.2396 41.9531 45.6875 41.9531C46.3646 41.9531 46.9531 41.8177 47.4531 41.5469C47.9531 41.276 48.3385 40.9427 48.6094 40.5469C48.8906 40.151 49.0365 39.776 49.0469 39.4219L50.2344 41.3281C50.0677 41.7552 49.8385 42.1979 49.5469 42.6562C49.2656 43.1146 48.9062 43.5469 48.4688 43.9531C48.0312 44.349 47.5052 44.6771 46.8906 44.9375C46.276 45.1875 45.5469 45.3125 44.7031 45.3125C43.6302 45.3125 42.6562 45.099 41.7812 44.6719C40.9167 44.2344 40.2292 43.6354 39.7188 42.875C39.2188 42.1042 38.9688 41.2292 38.9688 40.25C38.9688 39.3646 39.1354 38.5781 39.4688 37.8906C39.8021 37.2031 40.2917 36.625 40.9375 36.1562C41.5938 35.6771 42.4115 35.3177 43.3906 35.0781C44.3698 34.8281 45.5052 34.7031 46.7969 34.7031H49.4062ZM63.7969 41.7969C64.349 41.7969 64.8385 41.6927 65.2656 41.4844C65.6927 41.2656 66.026 40.9635 66.2656 40.5781C66.5156 40.1823 66.6458 39.7188 66.6562 39.1875H70.8906C70.8802 40.375 70.5625 41.4323 69.9375 42.3594C69.3125 43.276 68.474 44 67.4219 44.5312C66.3698 45.0521 65.1927 45.3125 63.8906 45.3125C62.5781 45.3125 61.4323 45.0938 60.4531 44.6562C59.4844 44.2188 58.6771 43.6146 58.0312 42.8438C57.3854 42.0625 56.901 41.1562 56.5781 40.125C56.2552 39.0833 56.0938 37.9688 56.0938 36.7812V36.3281C56.0938 35.1302 56.2552 34.0156 56.5781 32.9844C56.901 31.9427 57.3854 31.0365 58.0312 30.2656C58.6771 29.4844 59.4844 28.875 60.4531 28.4375C61.4219 28 62.5573 27.7812 63.8594 27.7812C65.2448 27.7812 66.4583 28.0469 67.5 28.5781C68.5521 29.1094 69.375 29.8698 69.9688 30.8594C70.5729 31.8385 70.8802 33 70.8906 34.3438H66.6562C66.6458 33.7812 66.526 33.2708 66.2969 32.8125C66.0781 32.3542 65.7552 31.9896 65.3281 31.7188C64.9115 31.4375 64.3958 31.2969 63.7812 31.2969C63.125 31.2969 62.5885 31.4375 62.1719 31.7188C61.7552 31.9896 61.4323 32.3646 61.2031 32.8438C60.974 33.3125 60.8125 33.849 60.7188 34.4531C60.6354 35.0469 60.5938 35.6719 60.5938 36.3281V36.7812C60.5938 37.4375 60.6354 38.0677 60.7188 38.6719C60.8021 39.276 60.9583 39.8125 61.1875 40.2812C61.4271 40.75 61.7552 41.1198 62.1719 41.3906C62.5885 41.6615 63.1302 41.7969 63.7969 41.7969ZM82.625 41.1875V33.6562C82.625 33.1146 82.5365 32.651 82.3594 32.2656C82.1823 31.8698 81.9062 31.5625 81.5312 31.3438C81.1667 31.125 80.6927 31.0156 80.1094 31.0156C79.6094 31.0156 79.1771 31.1042 78.8125 31.2812C78.4479 31.4479 78.1667 31.6927 77.9688 32.0156C77.7708 32.3281 77.6719 32.6979 77.6719 33.125H73.1719C73.1719 32.4062 73.3385 31.724 73.6719 31.0781C74.0052 30.4323 74.4896 29.8646 75.125 29.375C75.7604 28.875 76.5156 28.4844 77.3906 28.2031C78.276 27.9219 79.2656 27.7812 80.3594 27.7812C81.6719 27.7812 82.8385 28 83.8594 28.4375C84.8802 28.875 85.6823 29.5312 86.2656 30.4062C86.8594 31.2812 87.1562 32.375 87.1562 33.6875V40.9219C87.1562 41.849 87.2135 42.6094 87.3281 43.2031C87.4427 43.7865 87.6094 44.2969 87.8281 44.7344V45H83.2812C83.0625 44.5417 82.8958 43.9688 82.7812 43.2812C82.6771 42.5833 82.625 41.8854 82.625 41.1875ZM83.2188 34.7031L83.25 37.25H80.7344C80.1406 37.25 79.625 37.3177 79.1875 37.4531C78.75 37.5885 78.3906 37.7812 78.1094 38.0312C77.8281 38.2708 77.6198 38.5521 77.4844 38.875C77.3594 39.1979 77.2969 39.5521 77.2969 39.9375C77.2969 40.3229 77.3854 40.6719 77.5625 40.9844C77.7396 41.2865 77.9948 41.526 78.3281 41.7031C78.6615 41.8698 79.0521 41.9531 79.5 41.9531C80.1771 41.9531 80.7656 41.8177 81.2656 41.5469C81.7656 41.276 82.151 40.9427 82.4219 40.5469C82.7031 40.151 82.849 39.776 82.8594 39.4219L84.0469 41.3281C83.8802 41.7552 83.651 42.1979 83.3594 42.6562C83.0781 43.1146 82.7188 43.5469 82.2812 43.9531C81.8438 44.349 81.3177 44.6771 80.7031 44.9375C80.0885 45.1875 79.3594 45.3125 78.5156 45.3125C77.4427 45.3125 76.4688 45.099 75.5938 44.6719C74.7292 44.2344 74.0417 43.6354 73.5312 42.875C73.0312 42.1042 72.7812 41.2292 72.7812 40.25C72.7812 39.3646 72.9479 38.5781 73.2812 37.8906C73.6146 37.2031 74.1042 36.625 74.75 36.1562C75.4062 35.6771 76.224 35.3177 77.2031 35.0781C78.1823 34.8281 79.3177 34.7031 80.6094 34.7031H83.2188ZM89.9062 36.7188V36.3906C89.9062 35.151 90.0833 34.0104 90.4375 32.9688C90.7917 31.9167 91.3073 31.0052 91.9844 30.2344C92.6615 29.4635 93.4948 28.8646 94.4844 28.4375C95.474 28 96.6094 27.7812 97.8906 27.7812C99.1719 27.7812 100.312 28 101.312 28.4375C102.312 28.8646 103.151 29.4635 103.828 30.2344C104.516 31.0052 105.036 31.9167 105.391 32.9688C105.745 34.0104 105.922 35.151 105.922 36.3906V36.7188C105.922 37.9479 105.745 39.0885 105.391 40.1406C105.036 41.1823 104.516 42.0938 103.828 42.875C103.151 43.6458 102.318 44.2448 101.328 44.6719C100.339 45.099 99.2031 45.3125 97.9219 45.3125C96.6406 45.3125 95.5 45.099 94.5 44.6719C93.5104 44.2448 92.6719 43.6458 91.9844 42.875C91.3073 42.0938 90.7917 41.1823 90.4375 40.1406C90.0833 39.0885 89.9062 37.9479 89.9062 36.7188ZM94.4062 36.3906V36.7188C94.4062 37.4271 94.4688 38.0885 94.5938 38.7031C94.7188 39.3177 94.9167 39.8594 95.1875 40.3281C95.4688 40.7865 95.8333 41.1458 96.2812 41.4062C96.7292 41.6667 97.276 41.7969 97.9219 41.7969C98.5469 41.7969 99.0833 41.6667 99.5312 41.4062C99.9792 41.1458 100.339 40.7865 100.609 40.3281C100.88 39.8594 101.078 39.3177 101.203 38.7031C101.339 38.0885 101.406 37.4271 101.406 36.7188V36.3906C101.406 35.7031 101.339 35.0573 101.203 34.4531C101.078 33.8385 100.875 33.2969 100.594 32.8281C100.323 32.349 99.9635 31.974 99.5156 31.7031C99.0677 31.4323 98.526 31.2969 97.8906 31.2969C97.2552 31.2969 96.7135 31.4323 96.2656 31.7031C95.8281 31.974 95.4688 32.349 95.1875 32.8281C94.9167 33.2969 94.7188 33.8385 94.5938 34.4531C94.4688 35.0573 94.4062 35.7031 94.4062 36.3906ZM121.156 31.3438V51.5H116.656V28.0938H120.828L121.156 31.3438ZM131.859 36.3594V36.6875C131.859 37.9167 131.714 39.0573 131.422 40.1094C131.141 41.1615 130.724 42.0781 130.172 42.8594C129.62 43.6302 128.932 44.2344 128.109 44.6719C127.297 45.099 126.359 45.3125 125.297 45.3125C124.266 45.3125 123.37 45.1042 122.609 44.6875C121.849 44.2708 121.208 43.6875 120.688 42.9375C120.177 42.1771 119.766 41.2969 119.453 40.2969C119.141 39.2969 118.901 38.224 118.734 37.0781V36.2188C118.901 34.9896 119.141 33.8646 119.453 32.8438C119.766 31.8125 120.177 30.9219 120.688 30.1719C121.208 29.4115 121.844 28.8229 122.594 28.4062C123.354 27.9896 124.245 27.7812 125.266 27.7812C126.339 27.7812 127.281 27.9844 128.094 28.3906C128.917 28.7969 129.604 29.3802 130.156 30.1406C130.719 30.901 131.141 31.8073 131.422 32.8594C131.714 33.9115 131.859 35.0781 131.859 36.3594ZM127.344 36.6875V36.3594C127.344 35.6406 127.281 34.9792 127.156 34.375C127.042 33.7604 126.854 33.224 126.594 32.7656C126.344 32.3073 126.01 31.9531 125.594 31.7031C125.188 31.4427 124.693 31.3125 124.109 31.3125C123.495 31.3125 122.969 31.4115 122.531 31.6094C122.104 31.8073 121.755 32.0938 121.484 32.4688C121.214 32.8438 121.01 33.2917 120.875 33.8125C120.74 34.3333 120.656 34.9219 120.625 35.5781V37.75C120.677 38.5208 120.823 39.2135 121.062 39.8281C121.302 40.4323 121.672 40.9115 122.172 41.2656C122.672 41.6198 123.328 41.7969 124.141 41.7969C124.734 41.7969 125.234 41.6667 125.641 41.4062C126.047 41.1354 126.375 40.7656 126.625 40.2969C126.885 39.8281 127.068 39.2865 127.172 38.6719C127.286 38.0573 127.344 37.3958 127.344 36.6875ZM139.156 31.7812V45H134.656V28.0938H138.891L139.156 31.7812ZM144.25 27.9844L144.172 32.1562C143.953 32.125 143.688 32.099 143.375 32.0781C143.073 32.0469 142.797 32.0312 142.547 32.0312C141.911 32.0312 141.359 32.1146 140.891 32.2812C140.432 32.4375 140.047 32.6719 139.734 32.9844C139.432 33.2969 139.203 33.6771 139.047 34.125C138.901 34.5729 138.818 35.0833 138.797 35.6562L137.891 35.375C137.891 34.2812 138 33.276 138.219 32.3594C138.438 31.4323 138.755 30.625 139.172 29.9375C139.599 29.25 140.12 28.7188 140.734 28.3438C141.349 27.9688 142.052 27.7812 142.844 27.7812C143.094 27.7812 143.349 27.8021 143.609 27.8438C143.87 27.875 144.083 27.9219 144.25 27.9844ZM145.188 36.7188V36.3906C145.188 35.151 145.365 34.0104 145.719 32.9688C146.073 31.9167 146.589 31.0052 147.266 30.2344C147.943 29.4635 148.776 28.8646 149.766 28.4375C150.755 28 151.891 27.7812 153.172 27.7812C154.453 27.7812 155.594 28 156.594 28.4375C157.594 28.8646 158.432 29.4635 159.109 30.2344C159.797 31.0052 160.318 31.9167 160.672 32.9688C161.026 34.0104 161.203 35.151 161.203 36.3906V36.7188C161.203 37.9479 161.026 39.0885 160.672 40.1406C160.318 41.1823 159.797 42.0938 159.109 42.875C158.432 43.6458 157.599 44.2448 156.609 44.6719C155.62 45.099 154.484 45.3125 153.203 45.3125C151.922 45.3125 150.781 45.099 149.781 44.6719C148.792 44.2448 147.953 43.6458 147.266 42.875C146.589 42.0938 146.073 41.1823 145.719 40.1406C145.365 39.0885 145.188 37.9479 145.188 36.7188ZM149.688 36.3906V36.7188C149.688 37.4271 149.75 38.0885 149.875 38.7031C150 39.3177 150.198 39.8594 150.469 40.3281C150.75 40.7865 151.115 41.1458 151.562 41.4062C152.01 41.6667 152.557 41.7969 153.203 41.7969C153.828 41.7969 154.365 41.6667 154.812 41.4062C155.26 41.1458 155.62 40.7865 155.891 40.3281C156.161 39.8594 156.359 39.3177 156.484 38.7031C156.62 38.0885 156.688 37.4271 156.688 36.7188V36.3906C156.688 35.7031 156.62 35.0573 156.484 34.4531C156.359 33.8385 156.156 33.2969 155.875 32.8281C155.604 32.349 155.245 31.974 154.797 31.7031C154.349 31.4323 153.807 31.2969 153.172 31.2969C152.536 31.2969 151.995 31.4323 151.547 31.7031C151.109 31.974 150.75 32.349 150.469 32.8281C150.198 33.2969 150 33.8385 149.875 34.4531C149.75 35.0573 149.688 35.7031 149.688 36.3906ZM173.953 41.3125V21H178.484V45H174.406L173.953 41.3125ZM163.266 36.75V36.4219C163.266 35.1302 163.411 33.9583 163.703 32.9062C163.995 31.8438 164.422 30.9323 164.984 30.1719C165.547 29.4115 166.24 28.8229 167.062 28.4062C167.885 27.9896 168.823 27.7812 169.875 27.7812C170.865 27.7812 171.729 27.9896 172.469 28.4062C173.219 28.8229 173.854 29.4167 174.375 30.1875C174.906 30.9479 175.333 31.849 175.656 32.8906C175.979 33.9219 176.214 35.0521 176.359 36.2812V37C176.214 38.1771 175.979 39.2708 175.656 40.2812C175.333 41.2917 174.906 42.1771 174.375 42.9375C173.854 43.6875 173.219 44.2708 172.469 44.6875C171.719 45.1042 170.844 45.3125 169.844 45.3125C168.792 45.3125 167.854 45.099 167.031 44.6719C166.219 44.2448 165.531 43.6458 164.969 42.875C164.417 42.1042 163.995 41.1979 163.703 40.1562C163.411 39.1146 163.266 37.9792 163.266 36.75ZM167.766 36.4219V36.75C167.766 37.4479 167.818 38.099 167.922 38.7031C168.036 39.3073 168.219 39.8438 168.469 40.3125C168.729 40.7708 169.062 41.1302 169.469 41.3906C169.885 41.6406 170.391 41.7656 170.984 41.7656C171.755 41.7656 172.391 41.5938 172.891 41.25C173.391 40.8958 173.771 40.4115 174.031 39.7969C174.302 39.1823 174.458 38.474 174.5 37.6719V35.625C174.469 34.9688 174.375 34.3802 174.219 33.8594C174.073 33.3281 173.854 32.875 173.562 32.5C173.281 32.125 172.927 31.8333 172.5 31.625C172.083 31.4167 171.589 31.3125 171.016 31.3125C170.432 31.3125 169.932 31.4479 169.516 31.7188C169.099 31.9792 168.76 32.3385 168.5 32.7969C168.25 33.2552 168.062 33.7969 167.938 34.4219C167.823 35.0365 167.766 35.7031 167.766 36.4219ZM192 40.9531V28.0938H196.5V45H192.266L192 40.9531ZM192.5 37.4844L193.828 37.4531C193.828 38.5781 193.698 39.625 193.438 40.5938C193.177 41.5521 192.786 42.3854 192.266 43.0938C191.745 43.7917 191.089 44.3385 190.297 44.7344C189.505 45.1198 188.573 45.3125 187.5 45.3125C186.677 45.3125 185.917 45.1979 185.219 44.9688C184.531 44.7292 183.938 44.3594 183.438 43.8594C182.948 43.349 182.562 42.6979 182.281 41.9062C182.01 41.1042 181.875 40.1406 181.875 39.0156V28.0938H186.375V39.0469C186.375 39.5469 186.432 39.9688 186.547 40.3125C186.672 40.6562 186.844 40.9375 187.062 41.1562C187.281 41.375 187.536 41.5312 187.828 41.625C188.13 41.7188 188.464 41.7656 188.828 41.7656C189.755 41.7656 190.484 41.5781 191.016 41.2031C191.557 40.8281 191.938 40.3177 192.156 39.6719C192.385 39.0156 192.5 38.2865 192.5 37.4844ZM206.922 41.7969C207.474 41.7969 207.964 41.6927 208.391 41.4844C208.818 41.2656 209.151 40.9635 209.391 40.5781C209.641 40.1823 209.771 39.7188 209.781 39.1875H214.016C214.005 40.375 213.688 41.4323 213.062 42.3594C212.438 43.276 211.599 44 210.547 44.5312C209.495 45.0521 208.318 45.3125 207.016 45.3125C205.703 45.3125 204.557 45.0938 203.578 44.6562C202.609 44.2188 201.802 43.6146 201.156 42.8438C200.51 42.0625 200.026 41.1562 199.703 40.125C199.38 39.0833 199.219 37.9688 199.219 36.7812V36.3281C199.219 35.1302 199.38 34.0156 199.703 32.9844C200.026 31.9427 200.51 31.0365 201.156 30.2656C201.802 29.4844 202.609 28.875 203.578 28.4375C204.547 28 205.682 27.7812 206.984 27.7812C208.37 27.7812 209.583 28.0469 210.625 28.5781C211.677 29.1094 212.5 29.8698 213.094 30.8594C213.698 31.8385 214.005 33 214.016 34.3438H209.781C209.771 33.7812 209.651 33.2708 209.422 32.8125C209.203 32.3542 208.88 31.9896 208.453 31.7188C208.036 31.4375 207.521 31.2969 206.906 31.2969C206.25 31.2969 205.714 31.4375 205.297 31.7188C204.88 31.9896 204.557 32.3646 204.328 32.8438C204.099 33.3125 203.938 33.849 203.844 34.4531C203.76 35.0469 203.719 35.6719 203.719 36.3281V36.7812C203.719 37.4375 203.76 38.0677 203.844 38.6719C203.927 39.276 204.083 39.8125 204.312 40.2812C204.552 40.75 204.88 41.1198 205.297 41.3906C205.714 41.6615 206.255 41.7969 206.922 41.7969ZM224.906 28.0938V31.2812H215.062V28.0938H224.906ZM217.5 23.9219H222V39.9062C222 40.3958 222.062 40.7708 222.188 41.0312C222.323 41.2917 222.521 41.474 222.781 41.5781C223.042 41.6719 223.37 41.7188 223.766 41.7188C224.047 41.7188 224.297 41.7083 224.516 41.6875C224.745 41.6562 224.938 41.625 225.094 41.5938L225.109 44.9062C224.724 45.0312 224.307 45.1302 223.859 45.2031C223.411 45.276 222.917 45.3125 222.375 45.3125C221.385 45.3125 220.521 45.151 219.781 44.8281C219.052 44.4948 218.49 43.9635 218.094 43.2344C217.698 42.5052 217.5 41.5469 217.5 40.3594V23.9219ZM232.219 28.0938V45H227.703V28.0938H232.219ZM227.422 23.6875C227.422 23.0312 227.651 22.4896 228.109 22.0625C228.568 21.6354 229.182 21.4219 229.953 21.4219C230.714 21.4219 231.323 21.6354 231.781 22.0625C232.25 22.4896 232.484 23.0312 232.484 23.6875C232.484 24.3438 232.25 24.8854 231.781 25.3125C231.323 25.7396 230.714 25.9531 229.953 25.9531C229.182 25.9531 228.568 25.7396 228.109 25.3125C227.651 24.8854 227.422 24.3438 227.422 23.6875ZM235.219 36.7188V36.3906C235.219 35.151 235.396 34.0104 235.75 32.9688C236.104 31.9167 236.62 31.0052 237.297 30.2344C237.974 29.4635 238.807 28.8646 239.797 28.4375C240.786 28 241.922 27.7812 243.203 27.7812C244.484 27.7812 245.625 28 246.625 28.4375C247.625 28.8646 248.464 29.4635 249.141 30.2344C249.828 31.0052 250.349 31.9167 250.703 32.9688C251.057 34.0104 251.234 35.151 251.234 36.3906V36.7188C251.234 37.9479 251.057 39.0885 250.703 40.1406C250.349 41.1823 249.828 42.0938 249.141 42.875C248.464 43.6458 247.63 44.2448 246.641 44.6719C245.651 45.099 244.516 45.3125 243.234 45.3125C241.953 45.3125 240.812 45.099 239.812 44.6719C238.823 44.2448 237.984 43.6458 237.297 42.875C236.62 42.0938 236.104 41.1823 235.75 40.1406C235.396 39.0885 235.219 37.9479 235.219 36.7188ZM239.719 36.3906V36.7188C239.719 37.4271 239.781 38.0885 239.906 38.7031C240.031 39.3177 240.229 39.8594 240.5 40.3281C240.781 40.7865 241.146 41.1458 241.594 41.4062C242.042 41.6667 242.589 41.7969 243.234 41.7969C243.859 41.7969 244.396 41.6667 244.844 41.4062C245.292 41.1458 245.651 40.7865 245.922 40.3281C246.193 39.8594 246.391 39.3177 246.516 38.7031C246.651 38.0885 246.719 37.4271 246.719 36.7188V36.3906C246.719 35.7031 246.651 35.0573 246.516 34.4531C246.391 33.8385 246.188 33.2969 245.906 32.8281C245.635 32.349 245.276 31.974 244.828 31.7031C244.38 31.4323 243.839 31.2969 243.203 31.2969C242.568 31.2969 242.026 31.4323 241.578 31.7031C241.141 31.974 240.781 32.349 240.5 32.8281C240.229 33.2969 240.031 33.8385 239.906 34.4531C239.781 35.0573 239.719 35.7031 239.719 36.3906ZM258.406 31.7031V45H253.906V28.0938H258.125L258.406 31.7031ZM257.75 35.9531H256.531C256.531 34.7031 256.693 33.5781 257.016 32.5781C257.339 31.5677 257.792 30.7083 258.375 30C258.958 29.2812 259.651 28.7344 260.453 28.3594C261.266 27.974 262.172 27.7812 263.172 27.7812C263.964 27.7812 264.688 27.8958 265.344 28.125C266 28.3542 266.562 28.7188 267.031 29.2188C267.51 29.7188 267.875 30.3802 268.125 31.2031C268.385 32.026 268.516 33.0312 268.516 34.2188V45H263.984V34.2031C263.984 33.4531 263.88 32.8698 263.672 32.4531C263.464 32.0365 263.156 31.7448 262.75 31.5781C262.354 31.401 261.865 31.3125 261.281 31.3125C260.677 31.3125 260.151 31.4323 259.703 31.6719C259.266 31.9115 258.901 32.2448 258.609 32.6719C258.328 33.0885 258.115 33.5781 257.969 34.1406C257.823 34.7031 257.75 35.3073 257.75 35.9531ZM287.688 45.3125C286.375 45.3125 285.198 45.1042 284.156 44.6875C283.115 44.2604 282.229 43.6719 281.5 42.9219C280.781 42.1719 280.229 41.3021 279.844 40.3125C279.458 39.3125 279.266 38.25 279.266 37.125V36.5C279.266 35.2188 279.448 34.0469 279.812 32.9844C280.177 31.9219 280.698 31 281.375 30.2188C282.062 29.4375 282.896 28.8385 283.875 28.4219C284.854 27.9948 285.958 27.7812 287.188 27.7812C288.385 27.7812 289.448 27.9792 290.375 28.375C291.302 28.7708 292.078 29.3333 292.703 30.0625C293.339 30.7917 293.818 31.6667 294.141 32.6875C294.464 33.6979 294.625 34.8229 294.625 36.0625V37.9375H281.188V34.9375H290.203V34.5938C290.203 33.9688 290.089 33.4115 289.859 32.9219C289.641 32.4219 289.307 32.026 288.859 31.7344C288.411 31.4427 287.839 31.2969 287.141 31.2969C286.547 31.2969 286.036 31.4271 285.609 31.6875C285.182 31.9479 284.833 32.3125 284.562 32.7812C284.302 33.25 284.104 33.8021 283.969 34.4375C283.844 35.0625 283.781 35.75 283.781 36.5V37.125C283.781 37.8021 283.875 38.4271 284.062 39C284.26 39.5729 284.536 40.0677 284.891 40.4844C285.255 40.901 285.693 41.224 286.203 41.4531C286.724 41.6823 287.312 41.7969 287.969 41.7969C288.781 41.7969 289.536 41.6406 290.234 41.3281C290.943 41.0052 291.552 40.5208 292.062 39.875L294.25 42.25C293.896 42.7604 293.411 43.25 292.797 43.7188C292.193 44.1875 291.464 44.5729 290.609 44.875C289.755 45.1667 288.781 45.3125 287.688 45.3125ZM302.922 45H298.391V26.5938C298.391 25.3125 298.641 24.2344 299.141 23.3594C299.651 22.474 300.365 21.8073 301.281 21.3594C302.208 20.901 303.307 20.6719 304.578 20.6719C304.995 20.6719 305.396 20.7031 305.781 20.7656C306.167 20.8177 306.542 20.8854 306.906 20.9688L306.859 24.3594C306.661 24.3073 306.453 24.2708 306.234 24.25C306.016 24.2292 305.76 24.2188 305.469 24.2188C304.927 24.2188 304.464 24.3125 304.078 24.5C303.703 24.6771 303.417 24.9427 303.219 25.2969C303.021 25.651 302.922 26.0833 302.922 26.5938V45ZM306.344 28.0938V31.2812H295.875V28.0938H306.344ZM313.047 45H308.547V27.3281C308.547 25.8906 308.839 24.6771 309.422 23.6875C310.005 22.6979 310.849 21.9479 311.953 21.4375C313.057 20.9271 314.385 20.6719 315.938 20.6719C316.823 20.6719 317.682 20.7604 318.516 20.9375C319.349 21.1042 320.208 21.3229 321.094 21.5938L320.453 25.2031C319.88 25.026 319.26 24.8594 318.594 24.7031C317.938 24.5469 317.146 24.4688 316.219 24.4688C315.177 24.4688 314.385 24.7135 313.844 25.2031C313.312 25.6823 313.047 26.3906 313.047 27.3281V45ZM316.406 28.0938V31.2812H306.016V28.0938H316.406ZM323.203 28.0938V45H318.672V28.0938H323.203ZM333.922 41.7969C334.474 41.7969 334.964 41.6927 335.391 41.4844C335.818 41.2656 336.151 40.9635 336.391 40.5781C336.641 40.1823 336.771 39.7188 336.781 39.1875H341.016C341.005 40.375 340.688 41.4323 340.062 42.3594C339.438 43.276 338.599 44 337.547 44.5312C336.495 45.0521 335.318 45.3125 334.016 45.3125C332.703 45.3125 331.557 45.0938 330.578 44.6562C329.609 44.2188 328.802 43.6146 328.156 42.8438C327.51 42.0625 327.026 41.1562 326.703 40.125C326.38 39.0833 326.219 37.9688 326.219 36.7812V36.3281C326.219 35.1302 326.38 34.0156 326.703 32.9844C327.026 31.9427 327.51 31.0365 328.156 30.2656C328.802 29.4844 329.609 28.875 330.578 28.4375C331.547 28 332.682 27.7812 333.984 27.7812C335.37 27.7812 336.583 28.0469 337.625 28.5781C338.677 29.1094 339.5 29.8698 340.094 30.8594C340.698 31.8385 341.005 33 341.016 34.3438H336.781C336.771 33.7812 336.651 33.2708 336.422 32.8125C336.203 32.3542 335.88 31.9896 335.453 31.7188C335.036 31.4375 334.521 31.2969 333.906 31.2969C333.25 31.2969 332.714 31.4375 332.297 31.7188C331.88 31.9896 331.557 32.3646 331.328 32.8438C331.099 33.3125 330.938 33.849 330.844 34.4531C330.76 35.0469 330.719 35.6719 330.719 36.3281V36.7812C330.719 37.4375 330.76 38.0677 330.844 38.6719C330.927 39.276 331.083 39.8125 331.312 40.2812C331.552 40.75 331.88 41.1198 332.297 41.3906C332.714 41.6615 333.255 41.7969 333.922 41.7969ZM348.375 28.0938V45H343.859V28.0938H348.375ZM343.578 23.6875C343.578 23.0312 343.807 22.4896 344.266 22.0625C344.724 21.6354 345.339 21.4219 346.109 21.4219C346.87 21.4219 347.479 21.6354 347.938 22.0625C348.406 22.4896 348.641 23.0312 348.641 23.6875C348.641 24.3438 348.406 24.8854 347.938 25.3125C347.479 25.7396 346.87 25.9531 346.109 25.9531C345.339 25.9531 344.724 25.7396 344.266 25.3125C343.807 24.8854 343.578 24.3438 343.578 23.6875ZM359.875 45.3125C358.562 45.3125 357.385 45.1042 356.344 44.6875C355.302 44.2604 354.417 43.6719 353.688 42.9219C352.969 42.1719 352.417 41.3021 352.031 40.3125C351.646 39.3125 351.453 38.25 351.453 37.125V36.5C351.453 35.2188 351.635 34.0469 352 32.9844C352.365 31.9219 352.885 31 353.562 30.2188C354.25 29.4375 355.083 28.8385 356.062 28.4219C357.042 27.9948 358.146 27.7812 359.375 27.7812C360.573 27.7812 361.635 27.9792 362.562 28.375C363.49 28.7708 364.266 29.3333 364.891 30.0625C365.526 30.7917 366.005 31.6667 366.328 32.6875C366.651 33.6979 366.812 34.8229 366.812 36.0625V37.9375H353.375V34.9375H362.391V34.5938C362.391 33.9688 362.276 33.4115 362.047 32.9219C361.828 32.4219 361.495 32.026 361.047 31.7344C360.599 31.4427 360.026 31.2969 359.328 31.2969C358.734 31.2969 358.224 31.4271 357.797 31.6875C357.37 31.9479 357.021 32.3125 356.75 32.7812C356.49 33.25 356.292 33.8021 356.156 34.4375C356.031 35.0625 355.969 35.75 355.969 36.5V37.125C355.969 37.8021 356.062 38.4271 356.25 39C356.448 39.5729 356.724 40.0677 357.078 40.4844C357.443 40.901 357.88 41.224 358.391 41.4531C358.911 41.6823 359.5 41.7969 360.156 41.7969C360.969 41.7969 361.724 41.6406 362.422 41.3281C363.13 41.0052 363.74 40.5208 364.25 39.875L366.438 42.25C366.083 42.7604 365.599 43.25 364.984 43.7188C364.38 44.1875 363.651 44.5729 362.797 44.875C361.943 45.1667 360.969 45.3125 359.875 45.3125ZM373.781 31.7031V45H369.281V28.0938H373.5L373.781 31.7031ZM373.125 35.9531H371.906C371.906 34.7031 372.068 33.5781 372.391 32.5781C372.714 31.5677 373.167 30.7083 373.75 30C374.333 29.2812 375.026 28.7344 375.828 28.3594C376.641 27.974 377.547 27.7812 378.547 27.7812C379.339 27.7812 380.062 27.8958 380.719 28.125C381.375 28.3542 381.938 28.7188 382.406 29.2188C382.885 29.7188 383.25 30.3802 383.5 31.2031C383.76 32.026 383.891 33.0312 383.891 34.2188V45H379.359V34.2031C379.359 33.4531 379.255 32.8698 379.047 32.4531C378.839 32.0365 378.531 31.7448 378.125 31.5781C377.729 31.401 377.24 31.3125 376.656 31.3125C376.052 31.3125 375.526 31.4323 375.078 31.6719C374.641 31.9115 374.276 32.2448 373.984 32.6719C373.703 33.0885 373.49 33.5781 373.344 34.1406C373.198 34.7031 373.125 35.3073 373.125 35.9531ZM394.297 41.7969C394.849 41.7969 395.339 41.6927 395.766 41.4844C396.193 41.2656 396.526 40.9635 396.766 40.5781C397.016 40.1823 397.146 39.7188 397.156 39.1875H401.391C401.38 40.375 401.062 41.4323 400.438 42.3594C399.812 43.276 398.974 44 397.922 44.5312C396.87 45.0521 395.693 45.3125 394.391 45.3125C393.078 45.3125 391.932 45.0938 390.953 44.6562C389.984 44.2188 389.177 43.6146 388.531 42.8438C387.885 42.0625 387.401 41.1562 387.078 40.125C386.755 39.0833 386.594 37.9688 386.594 36.7812V36.3281C386.594 35.1302 386.755 34.0156 387.078 32.9844C387.401 31.9427 387.885 31.0365 388.531 30.2656C389.177 29.4844 389.984 28.875 390.953 28.4375C391.922 28 393.057 27.7812 394.359 27.7812C395.745 27.7812 396.958 28.0469 398 28.5781C399.052 29.1094 399.875 29.8698 400.469 30.8594C401.073 31.8385 401.38 33 401.391 34.3438H397.156C397.146 33.7812 397.026 33.2708 396.797 32.8125C396.578 32.3542 396.255 31.9896 395.828 31.7188C395.411 31.4375 394.896 31.2969 394.281 31.2969C393.625 31.2969 393.089 31.4375 392.672 31.7188C392.255 31.9896 391.932 32.3646 391.703 32.8438C391.474 33.3125 391.312 33.849 391.219 34.4531C391.135 35.0469 391.094 35.6719 391.094 36.3281V36.7812C391.094 37.4375 391.135 38.0677 391.219 38.6719C391.302 39.276 391.458 39.8125 391.688 40.2812C391.927 40.75 392.255 41.1198 392.672 41.3906C393.089 41.6615 393.63 41.7969 394.297 41.7969ZM409.016 43.0938L413.5 28.0938H418.328L411.531 47.5469C411.385 47.974 411.188 48.4323 410.938 48.9219C410.698 49.4115 410.37 49.875 409.953 50.3125C409.547 50.7604 409.031 51.125 408.406 51.4062C407.792 51.6875 407.036 51.8281 406.141 51.8281C405.714 51.8281 405.365 51.8021 405.094 51.75C404.823 51.6979 404.5 51.625 404.125 51.5312V48.2344C404.24 48.2344 404.359 48.2344 404.484 48.2344C404.609 48.2448 404.729 48.25 404.844 48.25C405.438 48.25 405.922 48.1823 406.297 48.0469C406.672 47.9115 406.974 47.7031 407.203 47.4219C407.432 47.151 407.615 46.7969 407.75 46.3594L409.016 43.0938ZM407.141 28.0938L410.812 40.3438L411.453 45.1094L408.391 45.4375L402.312 28.0938H407.141Z" fill="#404040" fill-opacity="0.66"/>
<path d="M738.868 635.359H741.597L745.614 646.843L749.632 635.359H752.36L746.71 651H744.519L738.868 635.359ZM737.396 635.359H740.114L740.608 646.553V651H737.396V635.359ZM751.114 635.359H753.843V651H750.62V646.553L751.114 635.359ZM755.98 645.307V645.081C755.98 644.229 756.102 643.445 756.346 642.729C756.589 642.005 756.944 641.379 757.409 640.849C757.875 640.319 758.448 639.907 759.128 639.613C759.808 639.312 760.589 639.162 761.47 639.162C762.351 639.162 763.135 639.312 763.822 639.613C764.51 639.907 765.086 640.319 765.552 640.849C766.024 641.379 766.382 642.005 766.626 642.729C766.869 643.445 766.991 644.229 766.991 645.081V645.307C766.991 646.152 766.869 646.936 766.626 647.659C766.382 648.375 766.024 649.002 765.552 649.539C765.086 650.069 764.513 650.481 763.833 650.774C763.153 651.068 762.372 651.215 761.491 651.215C760.61 651.215 759.826 651.068 759.139 650.774C758.458 650.481 757.882 650.069 757.409 649.539C756.944 649.002 756.589 648.375 756.346 647.659C756.102 646.936 755.98 646.152 755.98 645.307ZM759.074 645.081V645.307C759.074 645.794 759.117 646.248 759.203 646.671C759.289 647.093 759.425 647.466 759.611 647.788C759.805 648.103 760.055 648.35 760.363 648.529C760.671 648.708 761.047 648.798 761.491 648.798C761.921 648.798 762.29 648.708 762.598 648.529C762.906 648.35 763.153 648.103 763.339 647.788C763.525 647.466 763.661 647.093 763.747 646.671C763.84 646.248 763.887 645.794 763.887 645.307V645.081C763.887 644.608 763.84 644.164 763.747 643.749C763.661 643.326 763.521 642.954 763.328 642.632C763.142 642.302 762.895 642.045 762.587 641.858C762.279 641.672 761.907 641.579 761.47 641.579C761.033 641.579 760.66 641.672 760.353 641.858C760.052 642.045 759.805 642.302 759.611 642.632C759.425 642.954 759.289 643.326 759.203 643.749C759.117 644.164 759.074 644.608 759.074 645.081ZM771.986 641.912V651H768.893V639.377H771.804L771.986 641.912ZM775.488 639.302L775.435 642.17C775.284 642.148 775.102 642.131 774.887 642.116C774.679 642.095 774.489 642.084 774.317 642.084C773.881 642.084 773.501 642.141 773.179 642.256C772.864 642.363 772.599 642.524 772.384 642.739C772.176 642.954 772.019 643.215 771.911 643.523C771.811 643.831 771.754 644.182 771.739 644.576L771.116 644.383C771.116 643.631 771.191 642.94 771.342 642.31C771.492 641.672 771.711 641.117 771.997 640.645C772.291 640.172 772.649 639.807 773.071 639.549C773.494 639.291 773.977 639.162 774.521 639.162C774.693 639.162 774.869 639.176 775.048 639.205C775.227 639.227 775.374 639.259 775.488 639.302ZM782.084 651.215C781.182 651.215 780.372 651.072 779.656 650.785C778.94 650.492 778.331 650.087 777.83 649.571C777.336 649.056 776.956 648.458 776.691 647.777C776.426 647.09 776.294 646.359 776.294 645.586V645.156C776.294 644.275 776.419 643.47 776.67 642.739C776.921 642.009 777.279 641.375 777.744 640.838C778.217 640.301 778.79 639.889 779.463 639.603C780.136 639.309 780.895 639.162 781.74 639.162C782.564 639.162 783.294 639.298 783.932 639.57C784.569 639.842 785.103 640.229 785.532 640.73C785.969 641.232 786.299 641.833 786.521 642.535C786.743 643.23 786.854 644.003 786.854 644.855V646.145H777.615V644.082H783.813V643.846C783.813 643.416 783.735 643.033 783.577 642.696C783.427 642.353 783.198 642.08 782.89 641.88C782.582 641.679 782.188 641.579 781.708 641.579C781.3 641.579 780.949 641.669 780.655 641.848C780.362 642.027 780.122 642.277 779.936 642.6C779.757 642.922 779.62 643.301 779.527 643.738C779.441 644.168 779.398 644.641 779.398 645.156V645.586C779.398 646.051 779.463 646.481 779.592 646.875C779.728 647.269 779.918 647.609 780.161 647.896C780.412 648.182 780.713 648.404 781.063 648.562C781.422 648.719 781.826 648.798 782.277 648.798C782.836 648.798 783.355 648.69 783.835 648.476C784.322 648.254 784.741 647.921 785.092 647.477L786.596 649.109C786.352 649.46 786.019 649.797 785.597 650.119C785.181 650.441 784.68 650.706 784.093 650.914C783.506 651.115 782.836 651.215 782.084 651.215ZM799.443 651.215C798.541 651.215 797.732 651.072 797.016 650.785C796.299 650.492 795.691 650.087 795.189 649.571C794.695 649.056 794.316 648.458 794.051 647.777C793.786 647.09 793.653 646.359 793.653 645.586V645.156C793.653 644.275 793.779 643.47 794.029 642.739C794.28 642.009 794.638 641.375 795.104 640.838C795.576 640.301 796.149 639.889 796.822 639.603C797.495 639.309 798.255 639.162 799.1 639.162C799.923 639.162 800.654 639.298 801.291 639.57C801.928 639.842 802.462 640.229 802.892 640.73C803.328 641.232 803.658 641.833 803.88 642.535C804.102 643.23 804.213 644.003 804.213 644.855V646.145H794.975V644.082H801.173V643.846C801.173 643.416 801.094 643.033 800.937 642.696C800.786 642.353 800.557 642.08 800.249 641.88C799.941 641.679 799.547 641.579 799.067 641.579C798.659 641.579 798.308 641.669 798.015 641.848C797.721 642.027 797.481 642.277 797.295 642.6C797.116 642.922 796.98 643.301 796.887 643.738C796.801 644.168 796.758 644.641 796.758 645.156V645.586C796.758 646.051 796.822 646.481 796.951 646.875C797.087 647.269 797.277 647.609 797.521 647.896C797.771 648.182 798.072 648.404 798.423 648.562C798.781 648.719 799.186 648.798 799.637 648.798C800.195 648.798 800.715 648.69 801.194 648.476C801.681 648.254 802.1 647.921 802.451 647.477L803.955 649.109C803.712 649.46 803.379 649.797 802.956 650.119C802.541 650.441 802.039 650.706 801.452 650.914C800.865 651.115 800.195 651.215 799.443 651.215ZM809.917 651H806.802V638.346C806.802 637.465 806.974 636.724 807.317 636.122C807.668 635.513 808.159 635.055 808.789 634.747C809.426 634.432 810.182 634.274 811.056 634.274C811.342 634.274 811.618 634.296 811.883 634.339C812.148 634.375 812.406 634.421 812.656 634.479L812.624 636.81C812.488 636.774 812.345 636.749 812.194 636.734C812.044 636.72 811.868 636.713 811.668 636.713C811.296 636.713 810.977 636.777 810.712 636.906C810.454 637.028 810.257 637.211 810.121 637.454C809.985 637.698 809.917 637.995 809.917 638.346V651ZM812.27 639.377V641.568H805.072V639.377H812.27ZM816.878 651H813.784V638.851C813.784 637.862 813.985 637.028 814.386 636.348C814.787 635.667 815.367 635.152 816.126 634.801C816.885 634.45 817.798 634.274 818.865 634.274C819.474 634.274 820.065 634.335 820.638 634.457C821.211 634.572 821.801 634.722 822.41 634.908L821.97 637.39C821.576 637.268 821.15 637.153 820.691 637.046C820.24 636.938 819.696 636.885 819.059 636.885C818.342 636.885 817.798 637.053 817.426 637.39C817.061 637.719 816.878 638.206 816.878 638.851V651ZM819.188 639.377V641.568H812.044V639.377H819.188ZM823.86 639.377V651H820.745V639.377H823.86ZM831.229 648.798C831.609 648.798 831.946 648.726 832.239 648.583C832.533 648.433 832.762 648.225 832.927 647.96C833.099 647.688 833.188 647.369 833.195 647.004H836.106C836.099 647.82 835.881 648.547 835.451 649.185C835.021 649.815 834.445 650.312 833.722 650.678C832.998 651.036 832.189 651.215 831.294 651.215C830.392 651.215 829.604 651.064 828.931 650.764C828.265 650.463 827.71 650.048 827.266 649.518C826.822 648.98 826.489 648.357 826.267 647.648C826.045 646.932 825.934 646.166 825.934 645.35V645.038C825.934 644.215 826.045 643.448 826.267 642.739C826.489 642.023 826.822 641.4 827.266 640.87C827.71 640.333 828.265 639.914 828.931 639.613C829.597 639.312 830.377 639.162 831.272 639.162C832.225 639.162 833.059 639.345 833.775 639.71C834.499 640.075 835.064 640.598 835.473 641.278C835.888 641.951 836.099 642.75 836.106 643.674H833.195C833.188 643.287 833.106 642.936 832.948 642.621C832.798 642.306 832.576 642.055 832.282 641.869C831.996 641.676 831.641 641.579 831.219 641.579C830.768 641.579 830.399 641.676 830.112 641.869C829.826 642.055 829.604 642.313 829.446 642.643C829.289 642.965 829.178 643.334 829.113 643.749C829.056 644.157 829.027 644.587 829.027 645.038V645.35C829.027 645.801 829.056 646.234 829.113 646.649C829.171 647.065 829.278 647.434 829.436 647.756C829.6 648.078 829.826 648.332 830.112 648.519C830.399 648.705 830.771 648.798 831.229 648.798ZM841.166 639.377V651H838.062V639.377H841.166ZM837.868 636.348C837.868 635.896 838.026 635.524 838.341 635.23C838.656 634.937 839.078 634.79 839.608 634.79C840.131 634.79 840.55 634.937 840.865 635.23C841.188 635.524 841.349 635.896 841.349 636.348C841.349 636.799 841.188 637.171 840.865 637.465C840.55 637.758 840.131 637.905 839.608 637.905C839.078 637.905 838.656 637.758 838.341 637.465C838.026 637.171 837.868 636.799 837.868 636.348ZM849.072 651.215C848.17 651.215 847.361 651.072 846.645 650.785C845.928 650.492 845.32 650.087 844.818 649.571C844.324 649.056 843.945 648.458 843.68 647.777C843.415 647.09 843.282 646.359 843.282 645.586V645.156C843.282 644.275 843.408 643.47 843.658 642.739C843.909 642.009 844.267 641.375 844.732 640.838C845.205 640.301 845.778 639.889 846.451 639.603C847.124 639.309 847.883 639.162 848.729 639.162C849.552 639.162 850.283 639.298 850.92 639.57C851.557 639.842 852.091 640.229 852.521 640.73C852.957 641.232 853.287 641.833 853.509 642.535C853.731 643.23 853.842 644.003 853.842 644.855V646.145H844.604V644.082H850.802V643.846C850.802 643.416 850.723 643.033 850.565 642.696C850.415 642.353 850.186 642.08 849.878 641.88C849.57 641.679 849.176 641.579 848.696 641.579C848.288 641.579 847.937 641.669 847.644 641.848C847.35 642.027 847.11 642.277 846.924 642.6C846.745 642.922 846.609 643.301 846.516 643.738C846.43 644.168 846.387 644.641 846.387 645.156V645.586C846.387 646.051 846.451 646.481 846.58 646.875C846.716 647.269 846.906 647.609 847.149 647.896C847.4 648.182 847.701 648.404 848.052 648.562C848.41 648.719 848.814 648.798 849.266 648.798C849.824 648.798 850.343 648.69 850.823 648.476C851.31 648.254 851.729 647.921 852.08 647.477L853.584 649.109C853.34 649.46 853.007 649.797 852.585 650.119C852.17 650.441 851.668 650.706 851.081 650.914C850.494 651.115 849.824 651.215 849.072 651.215ZM858.633 641.858V651H855.539V639.377H858.439L858.633 641.858ZM858.182 644.78H857.344C857.344 643.921 857.455 643.147 857.677 642.46C857.899 641.765 858.21 641.174 858.611 640.688C859.012 640.193 859.489 639.817 860.04 639.56C860.599 639.295 861.222 639.162 861.909 639.162C862.453 639.162 862.951 639.241 863.402 639.398C863.854 639.556 864.24 639.807 864.562 640.15C864.892 640.494 865.143 640.949 865.314 641.515C865.493 642.08 865.583 642.771 865.583 643.588V651H862.468V643.577C862.468 643.062 862.396 642.66 862.253 642.374C862.11 642.088 861.898 641.887 861.619 641.772C861.347 641.651 861.01 641.59 860.609 641.59C860.194 641.59 859.832 641.672 859.524 641.837C859.224 642.002 858.973 642.231 858.772 642.524C858.579 642.811 858.432 643.147 858.332 643.534C858.232 643.921 858.182 644.336 858.182 644.78ZM873.629 639.377V641.568H866.861V639.377H873.629ZM868.537 636.509H871.631V647.498C871.631 647.835 871.674 648.092 871.76 648.271C871.853 648.451 871.989 648.576 872.168 648.647C872.347 648.712 872.573 648.744 872.845 648.744C873.038 648.744 873.21 648.737 873.36 648.723C873.518 648.701 873.65 648.68 873.758 648.658L873.769 650.936C873.504 651.021 873.217 651.09 872.909 651.14C872.601 651.19 872.261 651.215 871.889 651.215C871.208 651.215 870.614 651.104 870.105 650.882C869.604 650.653 869.217 650.287 868.945 649.786C868.673 649.285 868.537 648.626 868.537 647.81V636.509ZM884.812 651H881.696V638.346C881.696 637.465 881.868 636.724 882.212 636.122C882.563 635.513 883.053 635.055 883.684 634.747C884.321 634.432 885.076 634.274 885.95 634.274C886.237 634.274 886.512 634.296 886.777 634.339C887.042 634.375 887.3 634.421 887.551 634.479L887.519 636.81C887.382 636.774 887.239 636.749 887.089 636.734C886.938 636.72 886.763 636.713 886.562 636.713C886.19 636.713 885.871 636.777 885.606 636.906C885.349 637.028 885.152 637.211 885.016 637.454C884.88 637.698 884.812 637.995 884.812 638.346V651ZM887.132 639.377V641.568H879.967V639.377H887.132ZM895.027 648.379V643.201C895.027 642.829 894.966 642.51 894.845 642.245C894.723 641.973 894.533 641.762 894.275 641.611C894.025 641.461 893.699 641.386 893.298 641.386C892.954 641.386 892.657 641.447 892.406 641.568C892.156 641.683 891.962 641.851 891.826 642.073C891.69 642.288 891.622 642.542 891.622 642.836H888.528C888.528 642.342 888.643 641.873 888.872 641.429C889.101 640.985 889.434 640.594 889.871 640.258C890.308 639.914 890.827 639.646 891.429 639.452C892.037 639.259 892.718 639.162 893.47 639.162C894.372 639.162 895.174 639.312 895.876 639.613C896.578 639.914 897.129 640.365 897.53 640.967C897.938 641.568 898.143 642.32 898.143 643.223V648.196C898.143 648.834 898.182 649.356 898.261 649.765C898.34 650.166 898.454 650.517 898.604 650.817V651H895.479C895.328 650.685 895.214 650.291 895.135 649.818C895.063 649.339 895.027 648.859 895.027 648.379ZM895.436 643.921L895.457 645.672H893.728C893.319 645.672 892.965 645.718 892.664 645.812C892.363 645.905 892.116 646.037 891.923 646.209C891.729 646.374 891.586 646.567 891.493 646.789C891.407 647.011 891.364 647.255 891.364 647.52C891.364 647.785 891.425 648.024 891.547 648.239C891.669 648.447 891.844 648.612 892.073 648.733C892.302 648.848 892.571 648.905 892.879 648.905C893.344 648.905 893.749 648.812 894.093 648.626C894.437 648.44 894.701 648.211 894.888 647.938C895.081 647.666 895.181 647.409 895.188 647.165L896.005 648.476C895.89 648.769 895.733 649.074 895.532 649.389C895.339 649.704 895.092 650.001 894.791 650.28C894.49 650.552 894.129 650.778 893.706 650.957C893.284 651.129 892.782 651.215 892.202 651.215C891.465 651.215 890.795 651.068 890.193 650.774C889.599 650.474 889.126 650.062 888.775 649.539C888.432 649.009 888.26 648.408 888.26 647.734C888.26 647.126 888.374 646.585 888.604 646.112C888.833 645.64 889.169 645.242 889.613 644.92C890.064 644.59 890.627 644.343 891.3 644.179C891.973 644.007 892.754 643.921 893.642 643.921H895.436ZM903.621 641.912V651H900.527V639.377H903.438L903.621 641.912ZM907.123 639.302L907.069 642.17C906.919 642.148 906.736 642.131 906.521 642.116C906.314 642.095 906.124 642.084 905.952 642.084C905.515 642.084 905.136 642.141 904.813 642.256C904.498 642.363 904.233 642.524 904.019 642.739C903.811 642.954 903.653 643.215 903.546 643.523C903.446 643.831 903.388 644.182 903.374 644.576L902.751 644.383C902.751 643.631 902.826 642.94 902.977 642.31C903.127 641.672 903.345 641.117 903.632 640.645C903.925 640.172 904.284 639.807 904.706 639.549C905.129 639.291 905.612 639.162 906.156 639.162C906.328 639.162 906.504 639.176 906.683 639.205C906.862 639.227 907.008 639.259 907.123 639.302ZM911.678 641.783V651H908.573V639.377H911.484L911.678 641.783ZM911.248 644.78H910.389C910.389 643.971 910.485 643.226 910.679 642.546C910.879 641.858 911.169 641.264 911.549 640.763C911.936 640.254 912.412 639.86 912.978 639.581C913.543 639.302 914.199 639.162 914.943 639.162C915.459 639.162 915.932 639.241 916.361 639.398C916.791 639.549 917.16 639.789 917.468 640.118C917.783 640.44 918.026 640.863 918.198 641.386C918.37 641.901 918.456 642.521 918.456 643.244V651H915.362V643.588C915.362 643.058 915.291 642.65 915.147 642.363C915.004 642.077 914.8 641.876 914.535 641.762C914.277 641.647 913.966 641.59 913.601 641.59C913.2 641.59 912.849 641.672 912.548 641.837C912.254 642.002 912.011 642.231 911.817 642.524C911.624 642.811 911.481 643.147 911.388 643.534C911.295 643.921 911.248 644.336 911.248 644.78ZM918.166 644.426L917.06 644.565C917.06 643.806 917.153 643.101 917.339 642.449C917.532 641.798 917.815 641.225 918.188 640.73C918.567 640.236 919.036 639.853 919.595 639.581C920.153 639.302 920.798 639.162 921.528 639.162C922.087 639.162 922.595 639.244 923.054 639.409C923.512 639.567 923.902 639.821 924.225 640.172C924.554 640.516 924.805 640.967 924.977 641.525C925.156 642.084 925.245 642.768 925.245 643.577V651H922.141V643.577C922.141 643.04 922.069 642.632 921.926 642.353C921.79 642.066 921.589 641.869 921.324 641.762C921.066 641.647 920.758 641.59 920.4 641.59C920.028 641.59 919.702 641.665 919.423 641.815C919.144 641.959 918.911 642.159 918.725 642.417C918.538 642.675 918.399 642.976 918.306 643.319C918.213 643.656 918.166 644.025 918.166 644.426ZM932.99 651.215C932.088 651.215 931.279 651.072 930.562 650.785C929.846 650.492 929.238 650.087 928.736 649.571C928.242 649.056 927.863 648.458 927.598 647.777C927.333 647.09 927.2 646.359 927.2 645.586V645.156C927.2 644.275 927.326 643.47 927.576 642.739C927.827 642.009 928.185 641.375 928.65 640.838C929.123 640.301 929.696 639.889 930.369 639.603C931.042 639.309 931.801 639.162 932.646 639.162C933.47 639.162 934.201 639.298 934.838 639.57C935.475 639.842 936.009 640.229 936.438 640.73C936.875 641.232 937.205 641.833 937.427 642.535C937.649 643.23 937.76 644.003 937.76 644.855V646.145H928.521V644.082H934.72V643.846C934.72 643.416 934.641 643.033 934.483 642.696C934.333 642.353 934.104 642.08 933.796 641.88C933.488 641.679 933.094 641.579 932.614 641.579C932.206 641.579 931.855 641.669 931.562 641.848C931.268 642.027 931.028 642.277 930.842 642.6C930.663 642.922 930.527 643.301 930.434 643.738C930.348 644.168 930.305 644.641 930.305 645.156V645.586C930.305 646.051 930.369 646.481 930.498 646.875C930.634 647.269 930.824 647.609 931.067 647.896C931.318 648.182 931.619 648.404 931.97 648.562C932.328 648.719 932.732 648.798 933.184 648.798C933.742 648.798 934.261 648.69 934.741 648.476C935.228 648.254 935.647 647.921 935.998 647.477L937.502 649.109C937.258 649.46 936.925 649.797 936.503 650.119C936.088 650.441 935.586 650.706 934.999 650.914C934.412 651.115 933.742 651.215 932.99 651.215ZM942.615 641.912V651H939.521V639.377H942.433L942.615 641.912ZM946.117 639.302L946.063 642.17C945.913 642.148 945.73 642.131 945.516 642.116C945.308 642.095 945.118 642.084 944.946 642.084C944.509 642.084 944.13 642.141 943.808 642.256C943.493 642.363 943.228 642.524 943.013 642.739C942.805 642.954 942.647 643.215 942.54 643.523C942.44 643.831 942.382 644.182 942.368 644.576L941.745 644.383C941.745 643.631 941.82 642.94 941.971 642.31C942.121 641.672 942.34 641.117 942.626 640.645C942.92 640.172 943.278 639.807 943.7 639.549C944.123 639.291 944.606 639.162 945.15 639.162C945.322 639.162 945.498 639.176 945.677 639.205C945.856 639.227 946.003 639.259 946.117 639.302ZM953.862 647.788C953.862 647.566 953.798 647.366 953.669 647.187C953.54 647.007 953.3 646.843 952.949 646.692C952.605 646.535 952.108 646.392 951.456 646.263C950.869 646.134 950.321 645.973 949.812 645.779C949.311 645.579 948.874 645.339 948.502 645.06C948.137 644.78 947.85 644.451 947.643 644.071C947.435 643.685 947.331 643.244 947.331 642.75C947.331 642.263 947.435 641.805 947.643 641.375C947.857 640.945 948.162 640.566 948.556 640.236C948.957 639.9 949.444 639.638 950.017 639.452C950.597 639.259 951.248 639.162 951.972 639.162C952.981 639.162 953.848 639.323 954.571 639.646C955.302 639.968 955.86 640.412 956.247 640.978C956.641 641.536 956.838 642.174 956.838 642.89H953.744C953.744 642.589 953.68 642.32 953.551 642.084C953.429 641.84 953.236 641.651 952.971 641.515C952.713 641.371 952.376 641.3 951.961 641.3C951.617 641.3 951.32 641.361 951.069 641.482C950.819 641.597 950.625 641.755 950.489 641.955C950.36 642.148 950.296 642.363 950.296 642.6C950.296 642.779 950.332 642.94 950.403 643.083C950.482 643.219 950.607 643.344 950.779 643.459C950.951 643.574 951.173 643.681 951.445 643.781C951.725 643.874 952.068 643.96 952.477 644.039C953.314 644.211 954.063 644.437 954.722 644.716C955.381 644.988 955.903 645.36 956.29 645.833C956.677 646.299 956.87 646.911 956.87 647.67C956.87 648.186 956.756 648.658 956.526 649.088C956.297 649.518 955.968 649.894 955.538 650.216C955.108 650.531 954.593 650.778 953.991 650.957C953.397 651.129 952.727 651.215 951.982 651.215C950.901 651.215 949.984 651.021 949.232 650.635C948.488 650.248 947.922 649.757 947.535 649.163C947.156 648.562 946.966 647.946 946.966 647.315H949.898C949.913 647.738 950.02 648.078 950.221 648.336C950.428 648.594 950.69 648.78 951.005 648.895C951.327 649.009 951.674 649.066 952.047 649.066C952.448 649.066 952.781 649.013 953.046 648.905C953.311 648.791 953.511 648.64 953.647 648.454C953.791 648.261 953.862 648.039 953.862 647.788Z" fill="#404040" fill-opacity="0.66"/>
<path d="M180.451 648.486V651H172.577V648.486H180.451ZM173.619 635.359V651H170.396V635.359H173.619ZM187.455 651.215C186.553 651.215 185.743 651.072 185.027 650.785C184.311 650.492 183.702 650.087 183.201 649.571C182.707 649.056 182.327 648.458 182.062 647.777C181.798 647.09 181.665 646.359 181.665 645.586V645.156C181.665 644.275 181.79 643.47 182.041 642.739C182.292 642.009 182.65 641.375 183.115 640.838C183.588 640.301 184.161 639.889 184.834 639.603C185.507 639.309 186.266 639.162 187.111 639.162C187.935 639.162 188.665 639.298 189.303 639.57C189.94 639.842 190.474 640.229 190.903 640.73C191.34 641.232 191.67 641.833 191.892 642.535C192.114 643.23 192.225 644.003 192.225 644.855V646.145H182.986V644.082H189.185V643.846C189.185 643.416 189.106 643.033 188.948 642.696C188.798 642.353 188.569 642.08 188.261 641.88C187.953 641.679 187.559 641.579 187.079 641.579C186.671 641.579 186.32 641.669 186.026 641.848C185.733 642.027 185.493 642.277 185.307 642.6C185.128 642.922 184.992 643.301 184.898 643.738C184.812 644.168 184.77 644.641 184.77 645.156V645.586C184.77 646.051 184.834 646.481 184.963 646.875C185.099 647.269 185.289 647.609 185.532 647.896C185.783 648.182 186.084 648.404 186.435 648.562C186.793 648.719 187.197 648.798 187.648 648.798C188.207 648.798 188.726 648.69 189.206 648.476C189.693 648.254 190.112 647.921 190.463 647.477L191.967 649.109C191.723 649.46 191.39 649.797 190.968 650.119C190.552 650.441 190.051 650.706 189.464 650.914C188.877 651.115 188.207 651.215 187.455 651.215ZM200.271 647.788C200.271 647.566 200.206 647.366 200.077 647.187C199.948 647.007 199.708 646.843 199.357 646.692C199.014 646.535 198.516 646.392 197.864 646.263C197.277 646.134 196.729 645.973 196.221 645.779C195.719 645.579 195.283 645.339 194.91 645.06C194.545 644.78 194.258 644.451 194.051 644.071C193.843 643.685 193.739 643.244 193.739 642.75C193.739 642.263 193.843 641.805 194.051 641.375C194.266 640.945 194.57 640.566 194.964 640.236C195.365 639.9 195.852 639.638 196.425 639.452C197.005 639.259 197.657 639.162 198.38 639.162C199.39 639.162 200.256 639.323 200.979 639.646C201.71 639.968 202.269 640.412 202.655 640.978C203.049 641.536 203.246 642.174 203.246 642.89H200.152C200.152 642.589 200.088 642.32 199.959 642.084C199.837 641.84 199.644 641.651 199.379 641.515C199.121 641.371 198.785 641.3 198.369 641.3C198.025 641.3 197.728 641.361 197.478 641.482C197.227 641.597 197.034 641.755 196.897 641.955C196.769 642.148 196.704 642.363 196.704 642.6C196.704 642.779 196.74 642.94 196.812 643.083C196.89 643.219 197.016 643.344 197.188 643.459C197.359 643.574 197.581 643.681 197.854 643.781C198.133 643.874 198.477 643.96 198.885 644.039C199.723 644.211 200.471 644.437 201.13 644.716C201.789 644.988 202.312 645.36 202.698 645.833C203.085 646.299 203.278 646.911 203.278 647.67C203.278 648.186 203.164 648.658 202.935 649.088C202.705 649.518 202.376 649.894 201.946 650.216C201.517 650.531 201.001 650.778 200.399 650.957C199.805 651.129 199.135 651.215 198.391 651.215C197.309 651.215 196.393 651.021 195.641 650.635C194.896 650.248 194.33 649.757 193.943 649.163C193.564 648.562 193.374 647.946 193.374 647.315H196.307C196.321 647.738 196.428 648.078 196.629 648.336C196.837 648.594 197.098 648.78 197.413 648.895C197.735 649.009 198.083 649.066 198.455 649.066C198.856 649.066 199.189 649.013 199.454 648.905C199.719 648.791 199.92 648.64 200.056 648.454C200.199 648.261 200.271 648.039 200.271 647.788ZM211.571 647.788C211.571 647.566 211.507 647.366 211.378 647.187C211.249 647.007 211.009 646.843 210.658 646.692C210.314 646.535 209.817 646.392 209.165 646.263C208.578 646.134 208.03 645.973 207.521 645.779C207.02 645.579 206.583 645.339 206.211 645.06C205.846 644.78 205.559 644.451 205.352 644.071C205.144 643.685 205.04 643.244 205.04 642.75C205.04 642.263 205.144 641.805 205.352 641.375C205.566 640.945 205.871 640.566 206.265 640.236C206.666 639.9 207.153 639.638 207.726 639.452C208.306 639.259 208.957 639.162 209.681 639.162C210.69 639.162 211.557 639.323 212.28 639.646C213.011 639.968 213.569 640.412 213.956 640.978C214.35 641.536 214.547 642.174 214.547 642.89H211.453C211.453 642.589 211.389 642.32 211.26 642.084C211.138 641.84 210.945 641.651 210.68 641.515C210.422 641.371 210.085 641.3 209.67 641.3C209.326 641.3 209.029 641.361 208.778 641.482C208.528 641.597 208.334 641.755 208.198 641.955C208.069 642.148 208.005 642.363 208.005 642.6C208.005 642.779 208.041 642.94 208.112 643.083C208.191 643.219 208.316 643.344 208.488 643.459C208.66 643.574 208.882 643.681 209.154 643.781C209.434 643.874 209.777 643.96 210.186 644.039C211.023 644.211 211.772 644.437 212.431 644.716C213.09 644.988 213.612 645.36 213.999 645.833C214.386 646.299 214.579 646.911 214.579 647.67C214.579 648.186 214.465 648.658 214.235 649.088C214.006 649.518 213.677 649.894 213.247 650.216C212.817 650.531 212.302 650.778 211.7 650.957C211.106 651.129 210.436 651.215 209.691 651.215C208.61 651.215 207.693 651.021 206.941 650.635C206.197 650.248 205.631 649.757 205.244 649.163C204.865 648.562 204.675 647.946 204.675 647.315H207.607C207.622 647.738 207.729 648.078 207.93 648.336C208.137 648.594 208.399 648.78 208.714 648.895C209.036 649.009 209.383 649.066 209.756 649.066C210.157 649.066 210.49 649.013 210.755 648.905C211.02 648.791 211.22 648.64 211.356 648.454C211.5 648.261 211.571 648.039 211.571 647.788ZM227.416 651.215C226.514 651.215 225.704 651.072 224.988 650.785C224.272 650.492 223.663 650.087 223.162 649.571C222.668 649.056 222.288 648.458 222.023 647.777C221.758 647.09 221.626 646.359 221.626 645.586V645.156C221.626 644.275 221.751 643.47 222.002 642.739C222.253 642.009 222.611 641.375 223.076 640.838C223.549 640.301 224.122 639.889 224.795 639.603C225.468 639.309 226.227 639.162 227.072 639.162C227.896 639.162 228.626 639.298 229.264 639.57C229.901 639.842 230.435 640.229 230.864 640.73C231.301 641.232 231.631 641.833 231.853 642.535C232.075 643.23 232.186 644.003 232.186 644.855V646.145H222.947V644.082H229.146V643.846C229.146 643.416 229.067 643.033 228.909 642.696C228.759 642.353 228.53 642.08 228.222 641.88C227.914 641.679 227.52 641.579 227.04 641.579C226.632 641.579 226.281 641.669 225.987 641.848C225.694 642.027 225.454 642.277 225.268 642.6C225.089 642.922 224.952 643.301 224.859 643.738C224.773 644.168 224.73 644.641 224.73 645.156V645.586C224.73 646.051 224.795 646.481 224.924 646.875C225.06 647.269 225.25 647.609 225.493 647.896C225.744 648.182 226.045 648.404 226.396 648.562C226.754 648.719 227.158 648.798 227.609 648.798C228.168 648.798 228.687 648.69 229.167 648.476C229.654 648.254 230.073 647.921 230.424 647.477L231.928 649.109C231.684 649.46 231.351 649.797 230.929 650.119C230.513 650.441 230.012 650.706 229.425 650.914C228.838 651.115 228.168 651.215 227.416 651.215ZM237.89 651H234.774V638.346C234.774 637.465 234.946 636.724 235.29 636.122C235.641 635.513 236.132 635.055 236.762 634.747C237.399 634.432 238.155 634.274 239.028 634.274C239.315 634.274 239.59 634.296 239.855 634.339C240.12 634.375 240.378 634.421 240.629 634.479L240.597 636.81C240.461 636.774 240.317 636.749 240.167 636.734C240.017 636.72 239.841 636.713 239.641 636.713C239.268 636.713 238.95 636.777 238.685 636.906C238.427 637.028 238.23 637.211 238.094 637.454C237.958 637.698 237.89 637.995 237.89 638.346V651ZM240.242 639.377V641.568H233.045V639.377H240.242ZM244.851 651H241.757V638.851C241.757 637.862 241.957 637.028 242.358 636.348C242.759 635.667 243.34 635.152 244.099 634.801C244.858 634.45 245.771 634.274 246.838 634.274C247.447 634.274 248.037 634.335 248.61 634.457C249.183 634.572 249.774 634.722 250.383 634.908L249.942 637.39C249.549 637.268 249.122 637.153 248.664 637.046C248.213 636.938 247.669 636.885 247.031 636.885C246.315 636.885 245.771 637.053 245.398 637.39C245.033 637.719 244.851 638.206 244.851 638.851V651ZM247.16 639.377V641.568H240.017V639.377H247.16ZM251.833 639.377V651H248.718V639.377H251.833ZM259.202 648.798C259.582 648.798 259.918 648.726 260.212 648.583C260.506 648.433 260.735 648.225 260.899 647.96C261.071 647.688 261.161 647.369 261.168 647.004H264.079C264.072 647.82 263.854 648.547 263.424 649.185C262.994 649.815 262.418 650.312 261.694 650.678C260.971 651.036 260.162 651.215 259.267 651.215C258.364 651.215 257.576 651.064 256.903 650.764C256.237 650.463 255.682 650.048 255.238 649.518C254.794 648.98 254.461 648.357 254.239 647.648C254.017 646.932 253.906 646.166 253.906 645.35V645.038C253.906 644.215 254.017 643.448 254.239 642.739C254.461 642.023 254.794 641.4 255.238 640.87C255.682 640.333 256.237 639.914 256.903 639.613C257.569 639.312 258.35 639.162 259.245 639.162C260.198 639.162 261.032 639.345 261.748 639.71C262.471 640.075 263.037 640.598 263.445 641.278C263.861 641.951 264.072 642.75 264.079 643.674H261.168C261.161 643.287 261.078 642.936 260.921 642.621C260.771 642.306 260.549 642.055 260.255 641.869C259.968 641.676 259.614 641.579 259.191 641.579C258.74 641.579 258.371 641.676 258.085 641.869C257.799 642.055 257.576 642.313 257.419 642.643C257.261 642.965 257.15 643.334 257.086 643.749C257.029 644.157 257 644.587 257 645.038V645.35C257 645.801 257.029 646.234 257.086 646.649C257.143 647.065 257.251 647.434 257.408 647.756C257.573 648.078 257.799 648.332 258.085 648.519C258.371 648.705 258.744 648.798 259.202 648.798ZM269.139 639.377V651H266.034V639.377H269.139ZM265.841 636.348C265.841 635.896 265.998 635.524 266.313 635.23C266.629 634.937 267.051 634.79 267.581 634.79C268.104 634.79 268.523 634.937 268.838 635.23C269.16 635.524 269.321 635.896 269.321 636.348C269.321 636.799 269.16 637.171 268.838 637.465C268.523 637.758 268.104 637.905 267.581 637.905C267.051 637.905 266.629 637.758 266.313 637.465C265.998 637.171 265.841 636.799 265.841 636.348ZM277.045 651.215C276.143 651.215 275.333 651.072 274.617 650.785C273.901 650.492 273.292 650.087 272.791 649.571C272.297 649.056 271.917 648.458 271.652 647.777C271.387 647.09 271.255 646.359 271.255 645.586V645.156C271.255 644.275 271.38 643.47 271.631 642.739C271.882 642.009 272.24 641.375 272.705 640.838C273.178 640.301 273.751 639.889 274.424 639.603C275.097 639.309 275.856 639.162 276.701 639.162C277.525 639.162 278.255 639.298 278.893 639.57C279.53 639.842 280.063 640.229 280.493 640.73C280.93 641.232 281.259 641.833 281.481 642.535C281.703 643.23 281.814 644.003 281.814 644.855V646.145H272.576V644.082H278.774V643.846C278.774 643.416 278.696 643.033 278.538 642.696C278.388 642.353 278.159 642.08 277.851 641.88C277.543 641.679 277.149 641.579 276.669 641.579C276.261 641.579 275.91 641.669 275.616 641.848C275.323 642.027 275.083 642.277 274.896 642.6C274.717 642.922 274.581 643.301 274.488 643.738C274.402 644.168 274.359 644.641 274.359 645.156V645.586C274.359 646.051 274.424 646.481 274.553 646.875C274.689 647.269 274.879 647.609 275.122 647.896C275.373 648.182 275.674 648.404 276.024 648.562C276.382 648.719 276.787 648.798 277.238 648.798C277.797 648.798 278.316 648.69 278.796 648.476C279.283 648.254 279.702 647.921 280.053 647.477L281.557 649.109C281.313 649.46 280.98 649.797 280.558 650.119C280.142 650.441 279.641 650.706 279.054 650.914C278.466 651.115 277.797 651.215 277.045 651.215ZM286.605 641.858V651H283.512V639.377H286.412L286.605 641.858ZM286.154 644.78H285.316C285.316 643.921 285.427 643.147 285.649 642.46C285.871 641.765 286.183 641.174 286.584 640.688C286.985 640.193 287.461 639.817 288.013 639.56C288.571 639.295 289.194 639.162 289.882 639.162C290.426 639.162 290.924 639.241 291.375 639.398C291.826 639.556 292.213 639.807 292.535 640.15C292.865 640.494 293.115 640.949 293.287 641.515C293.466 642.08 293.556 642.771 293.556 643.588V651H290.44V643.577C290.44 643.062 290.369 642.66 290.226 642.374C290.082 642.088 289.871 641.887 289.592 641.772C289.32 641.651 288.983 641.59 288.582 641.59C288.167 641.59 287.805 641.672 287.497 641.837C287.196 642.002 286.946 642.231 286.745 642.524C286.552 642.811 286.405 643.147 286.305 643.534C286.204 643.921 286.154 644.336 286.154 644.78ZM301.602 639.377V641.568H294.834V639.377H301.602ZM296.51 636.509H299.604V647.498C299.604 647.835 299.646 648.092 299.732 648.271C299.826 648.451 299.962 648.576 300.141 648.647C300.32 648.712 300.545 648.744 300.817 648.744C301.011 648.744 301.183 648.737 301.333 648.723C301.491 648.701 301.623 648.68 301.73 648.658L301.741 650.936C301.476 651.021 301.19 651.09 300.882 651.14C300.574 651.19 300.234 651.215 299.861 651.215C299.181 651.215 298.587 651.104 298.078 650.882C297.577 650.653 297.19 650.287 296.918 649.786C296.646 649.285 296.51 648.626 296.51 647.81V636.509ZM312.784 651H309.669V638.346C309.669 637.465 309.841 636.724 310.185 636.122C310.535 635.513 311.026 635.055 311.656 634.747C312.294 634.432 313.049 634.274 313.923 634.274C314.209 634.274 314.485 634.296 314.75 634.339C315.015 634.375 315.273 634.421 315.523 634.479L315.491 636.81C315.355 636.774 315.212 636.749 315.062 636.734C314.911 636.72 314.736 636.713 314.535 636.713C314.163 636.713 313.844 636.777 313.579 636.906C313.321 637.028 313.124 637.211 312.988 637.454C312.852 637.698 312.784 637.995 312.784 638.346V651ZM315.104 639.377V641.568H307.939V639.377H315.104ZM323 648.379V643.201C323 642.829 322.939 642.51 322.817 642.245C322.696 641.973 322.506 641.762 322.248 641.611C321.997 641.461 321.672 641.386 321.271 641.386C320.927 641.386 320.63 641.447 320.379 641.568C320.128 641.683 319.935 641.851 319.799 642.073C319.663 642.288 319.595 642.542 319.595 642.836H316.501C316.501 642.342 316.616 641.873 316.845 641.429C317.074 640.985 317.407 640.594 317.844 640.258C318.281 639.914 318.8 639.646 319.401 639.452C320.01 639.259 320.69 639.162 321.442 639.162C322.345 639.162 323.147 639.312 323.849 639.613C324.55 639.914 325.102 640.365 325.503 640.967C325.911 641.568 326.115 642.32 326.115 643.223V648.196C326.115 648.834 326.155 649.356 326.233 649.765C326.312 650.166 326.427 650.517 326.577 650.817V651H323.451C323.301 650.685 323.186 650.291 323.107 649.818C323.036 649.339 323 648.859 323 648.379ZM323.408 643.921L323.43 645.672H321.7C321.292 645.672 320.938 645.718 320.637 645.812C320.336 645.905 320.089 646.037 319.896 646.209C319.702 646.374 319.559 646.567 319.466 646.789C319.38 647.011 319.337 647.255 319.337 647.52C319.337 647.785 319.398 648.024 319.52 648.239C319.641 648.447 319.817 648.612 320.046 648.733C320.275 648.848 320.544 648.905 320.852 648.905C321.317 648.905 321.722 648.812 322.065 648.626C322.409 648.44 322.674 648.211 322.86 647.938C323.054 647.666 323.154 647.409 323.161 647.165L323.978 648.476C323.863 648.769 323.705 649.074 323.505 649.389C323.312 649.704 323.064 650.001 322.764 650.28C322.463 650.552 322.101 650.778 321.679 650.957C321.256 651.129 320.755 651.215 320.175 651.215C319.437 651.215 318.768 651.068 318.166 650.774C317.572 650.474 317.099 650.062 316.748 649.539C316.404 649.009 316.232 648.408 316.232 647.734C316.232 647.126 316.347 646.585 316.576 646.112C316.805 645.64 317.142 645.242 317.586 644.92C318.037 644.59 318.599 644.343 319.272 644.179C319.946 644.007 320.726 643.921 321.614 643.921H323.408ZM331.594 641.912V651H328.5V639.377H331.411L331.594 641.912ZM335.096 639.302L335.042 642.17C334.892 642.148 334.709 642.131 334.494 642.116C334.286 642.095 334.097 642.084 333.925 642.084C333.488 642.084 333.108 642.141 332.786 642.256C332.471 642.363 332.206 642.524 331.991 642.739C331.784 642.954 331.626 643.215 331.519 643.523C331.418 643.831 331.361 644.182 331.347 644.576L330.724 644.383C330.724 643.631 330.799 642.94 330.949 642.31C331.1 641.672 331.318 641.117 331.604 640.645C331.898 640.172 332.256 639.807 332.679 639.549C333.101 639.291 333.585 639.162 334.129 639.162C334.301 639.162 334.476 639.176 334.655 639.205C334.834 639.227 334.981 639.259 335.096 639.302ZM339.65 641.783V651H336.546V639.377H339.457L339.65 641.783ZM339.221 644.78H338.361C338.361 643.971 338.458 643.226 338.651 642.546C338.852 641.858 339.142 641.264 339.521 640.763C339.908 640.254 340.384 639.86 340.95 639.581C341.516 639.302 342.171 639.162 342.916 639.162C343.432 639.162 343.904 639.241 344.334 639.398C344.764 639.549 345.132 639.789 345.44 640.118C345.756 640.44 345.999 640.863 346.171 641.386C346.343 641.901 346.429 642.521 346.429 643.244V651H343.335V643.588C343.335 643.058 343.263 642.65 343.12 642.363C342.977 642.077 342.773 641.876 342.508 641.762C342.25 641.647 341.938 641.59 341.573 641.59C341.172 641.59 340.821 641.672 340.521 641.837C340.227 642.002 339.983 642.231 339.79 642.524C339.597 642.811 339.453 643.147 339.36 643.534C339.267 643.921 339.221 644.336 339.221 644.78ZM346.139 644.426L345.032 644.565C345.032 643.806 345.125 643.101 345.312 642.449C345.505 641.798 345.788 641.225 346.16 640.73C346.54 640.236 347.009 639.853 347.567 639.581C348.126 639.302 348.771 639.162 349.501 639.162C350.06 639.162 350.568 639.244 351.026 639.409C351.485 639.567 351.875 639.821 352.197 640.172C352.527 640.516 352.777 640.967 352.949 641.525C353.128 642.084 353.218 642.768 353.218 643.577V651H350.113V643.577C350.113 643.04 350.042 642.632 349.898 642.353C349.762 642.066 349.562 641.869 349.297 641.762C349.039 641.647 348.731 641.59 348.373 641.59C348.001 641.59 347.675 641.665 347.396 641.815C347.116 641.959 346.883 642.159 346.697 642.417C346.511 642.675 346.371 642.976 346.278 643.319C346.185 643.656 346.139 644.025 346.139 644.426ZM360.963 651.215C360.061 651.215 359.251 651.072 358.535 650.785C357.819 650.492 357.21 650.087 356.709 649.571C356.215 649.056 355.835 648.458 355.57 647.777C355.305 647.09 355.173 646.359 355.173 645.586V645.156C355.173 644.275 355.298 643.47 355.549 642.739C355.799 642.009 356.158 641.375 356.623 640.838C357.096 640.301 357.669 639.889 358.342 639.603C359.015 639.309 359.774 639.162 360.619 639.162C361.443 639.162 362.173 639.298 362.811 639.57C363.448 639.842 363.981 640.229 364.411 640.73C364.848 641.232 365.177 641.833 365.399 642.535C365.621 643.23 365.732 644.003 365.732 644.855V646.145H356.494V644.082H362.692V643.846C362.692 643.416 362.614 643.033 362.456 642.696C362.306 642.353 362.076 642.08 361.769 641.88C361.461 641.679 361.067 641.579 360.587 641.579C360.179 641.579 359.828 641.669 359.534 641.848C359.241 642.027 359.001 642.277 358.814 642.6C358.635 642.922 358.499 643.301 358.406 643.738C358.32 644.168 358.277 644.641 358.277 645.156V645.586C358.277 646.051 358.342 646.481 358.471 646.875C358.607 647.269 358.797 647.609 359.04 647.896C359.291 648.182 359.591 648.404 359.942 648.562C360.3 648.719 360.705 648.798 361.156 648.798C361.715 648.798 362.234 648.69 362.714 648.476C363.201 648.254 363.62 647.921 363.971 647.477L365.475 649.109C365.231 649.46 364.898 649.797 364.476 650.119C364.06 650.441 363.559 650.706 362.972 650.914C362.384 651.115 361.715 651.215 360.963 651.215ZM370.588 641.912V651H367.494V639.377H370.405L370.588 641.912ZM374.09 639.302L374.036 642.17C373.886 642.148 373.703 642.131 373.488 642.116C373.281 642.095 373.091 642.084 372.919 642.084C372.482 642.084 372.103 642.141 371.78 642.256C371.465 642.363 371.2 642.524 370.985 642.739C370.778 642.954 370.62 643.215 370.513 643.523C370.412 643.831 370.355 644.182 370.341 644.576L369.718 644.383C369.718 643.631 369.793 642.94 369.943 642.31C370.094 641.672 370.312 641.117 370.599 640.645C370.892 640.172 371.25 639.807 371.673 639.549C372.095 639.291 372.579 639.162 373.123 639.162C373.295 639.162 373.47 639.176 373.649 639.205C373.828 639.227 373.975 639.259 374.09 639.302ZM381.835 647.788C381.835 647.566 381.771 647.366 381.642 647.187C381.513 647.007 381.273 646.843 380.922 646.692C380.578 646.535 380.08 646.392 379.429 646.263C378.841 646.134 378.294 645.973 377.785 645.779C377.284 645.579 376.847 645.339 376.475 645.06C376.109 644.78 375.823 644.451 375.615 644.071C375.408 643.685 375.304 643.244 375.304 642.75C375.304 642.263 375.408 641.805 375.615 641.375C375.83 640.945 376.134 640.566 376.528 640.236C376.929 639.9 377.416 639.638 377.989 639.452C378.569 639.259 379.221 639.162 379.944 639.162C380.954 639.162 381.821 639.323 382.544 639.646C383.274 639.968 383.833 640.412 384.22 640.978C384.614 641.536 384.811 642.174 384.811 642.89H381.717C381.717 642.589 381.652 642.32 381.523 642.084C381.402 641.84 381.208 641.651 380.943 641.515C380.686 641.371 380.349 641.3 379.934 641.3C379.59 641.3 379.293 641.361 379.042 641.482C378.791 641.597 378.598 641.755 378.462 641.955C378.333 642.148 378.269 642.363 378.269 642.6C378.269 642.779 378.304 642.94 378.376 643.083C378.455 643.219 378.58 643.344 378.752 643.459C378.924 643.574 379.146 643.681 379.418 643.781C379.697 643.874 380.041 643.96 380.449 644.039C381.287 644.211 382.035 644.437 382.694 644.716C383.353 644.988 383.876 645.36 384.263 645.833C384.649 646.299 384.843 646.911 384.843 647.67C384.843 648.186 384.728 648.658 384.499 649.088C384.27 649.518 383.94 649.894 383.511 650.216C383.081 650.531 382.565 650.778 381.964 650.957C381.369 651.129 380.7 651.215 379.955 651.215C378.874 651.215 377.957 651.021 377.205 650.635C376.46 650.248 375.895 649.757 375.508 649.163C375.128 648.562 374.938 647.946 374.938 647.315H377.871C377.885 647.738 377.993 648.078 378.193 648.336C378.401 648.594 378.662 648.78 378.978 648.895C379.3 649.009 379.647 649.066 380.02 649.066C380.421 649.066 380.754 649.013 381.019 648.905C381.284 648.791 381.484 648.64 381.62 648.454C381.763 648.261 381.835 648.039 381.835 647.788Z" fill="#404040" fill-opacity="0.66"/>
</svg>
